# xmcd
#
# Track frame offsets:
#	150
#	33875
#	69050
#	108002
#	137977
#	155510
#	177917
#	213672
#	229740
#	271290
#
# Disc length: 3937 seconds
#
# Revision: 1
# Processed by: cddbd v1.5.2PL0 Copyright (c) Steve Scherf et al.
# Submitted via: audiograbber 1.83.01
#
DISCID=820f5f0a
DTITLE=Mitropoulos, Harrell, Farrell - NYPO - Alban Berg: Wozzeck [CD1]
DYEAR=1951
DGENRE=1997 Sony Masterworks
TTITLE0=Erste Akt Szene 1 (Fünf Crakterstücke 1.) - Zimmer des Hauptmanns: Wozz
TTITLE0=ek, Hauptmann (Suite)
TTITLE1=Erste Akt - Zweite Szene (Fünf Crakterstücke 2.) - Freies Feld, die Sta
TTITLE1=dt in der Ferne: Wozzek, Andres (Rhapsodie)
TTITLE2=Erste Akt - Dritte Szene (Fünf Crakterstücke 3.) - Mariens Stube: Marie
TTITLE2=, Wozzek (Militärmarsch und Wiegenlied)
TTITLE3=Erste Akt - Vierte Szene (Fünf Crakterstücke 4.) - Studierstube des Dok
TTITLE3=tors: Wozzek, Doktor (Passagaclia)
TTITLE4=Erste Akt - Fünfte Szene (Fünf Crakterstücke 5.) - Straße vor Mariens T
TTITLE4=ür: Marie, Tambourmajor (Andante affetuoso [quasi Rondo])
TTITLE5=Zweite Akt - Erste Szene (Symphonie in Fünf Sätzen 1.) - Mariens Stube:
TTITLE5=Marie, Kind, Wozzek (Sonatensatz)
TTITLE6=Zweite Akt - Zweite Szene (Symphonie in Fünf Sätzen 2.) - Straße in der
TTITLE6=Stadt: Hauptmann, Doktor, Wozzek (Fantasie und Fuge)
TTITLE7=Zweite Akt - Dritte Szene (Symphonie in Fünf Sätzen 3.) - Straße vor Ma
TTITLE7=riens Wohnungstür: Marie, Wozzek (Largo)
TTITLE8=Zweite Akt - Vierte Szene (Symphonie in Fünf Sätzen 4.) - Wirtshausgart
TTITLE8=en (Scherzo)
TTITLE9=Zweite Akt - Fünfte Szene (Symphonie in Fünf Sätzen 5.) - Wachstube in 
TTITLE9=der Kaserne (Rondo con Introduzione)
EXTD=
EXTT0=
EXTT1=
EXTT2=
EXTT3=
EXTT4=
EXTT5=
EXTT6=
EXTT7=
EXTT8=
EXTT9=
PLAYORDER=
